<?xml version="1.0" encoding="UTF-8"?>
<svg id="Layer_2" data-name="Layer 2" xmlns="http://www.w3.org/2000/svg" viewBox="0 0 174.17 289.05">
  <defs>
    <style>
      .cls-1, .cls-2 {
        stroke-width: 0px;
      }

      .cls-2 {
        fill: #fff;
      }

      .cls-3 {
        fill: #f2f2f2;
        stroke: #000;
        stroke-miterlimit: 10;
      }
    </style>
  </defs>
  <g id="Layer_1-2" data-name="Layer 1">
    <g>
      <path class="cls-3" d="m131.4.61c14.2-1.67,21.9,16.69,10.4,25.33-3.42,2.57-9.42,2.23-7.22,7.2.55,1.24,11.33,3.99,21.96,15.54,31.83,34.62,16.75,90.49-23.98,105.07-22.93,8.21-40.11,1.74-42.18,2.3-4.13,1.12,5.11,6.04,4.91,8.92-.44,6.21-7.65.04-10.4,4.61-2.16,3.58-23.46,67.52-27.74,78.88-4.92,13.07-10.43,25.95-15.02,39.15l-1.44.86c-2.36-1.17-18.41-6.69-18.78-7.77-.42-1.2,4.52-8.3,2.6-9.5-2.82-1.5-23.6-8.84-23.98-10.08-.27-.87,2.29-5.93,2.6-6.05,5.98-2.28,7.75,11.36,15.89-10.08-1.33-2.08-8.76-4.09-9.25-5.76-.35-1.19,1.51-5.18,2.6-5.47,1.22-.33,19.36,7.51,22.53,8.64l.87-.86q15.02-40.59,30.05-81.18c-8.58-2.99-6.67-8.98-5.78-9.79,1.12-1.01,8.07,1.29,10.4,0-10.85-9.73-22.33-19.1-28.31-32.82C22.73,73.32,56.04,22.26,110.02,25.94c8.46.58,16.24,5.76,14.73-.29-.2-.79-6.95-4.52-5.2-14.39.8-4.5,7.37-10.12,11.85-10.65Z"/>
      <g>
        <path class="cls-2" d="m117.24,87.02c-13.67,0-20.42-10.78-20.91-20.8-.48-9.91,4.89-20.48,17.98-21.75.96-.09,1.92-.14,2.84-.14,13.88,0,20.5,10.69,20.78,20.63.29,10.06-5.6,21.24-19.19,22.02-.51.03-1,.04-1.5.04Z"/>
        <path class="cls-1" d="m117.16,43.83v1h0c13.61,0,19.99,10.12,20.27,20.14.28,9.83-5.46,20.75-18.72,21.5-.49.03-.99.04-1.47.04-13.34,0-19.93-10.53-20.41-20.32-.47-9.67,4.77-19.99,17.53-21.23.94-.09,1.88-.14,2.79-.14v-1m0,0c-.93,0-1.89.05-2.89.14-26.38,2.57-23.69,43.54,2.98,43.54.5,0,1.01-.01,1.52-.04,26.66-1.51,26.32-43.65-1.61-43.64h0Z"/>
      </g>
    </g>
  </g>
</svg>